<svg xmlns="http://www.w3.org/2000/svg" id="svg18" fill-rule="evenodd" viewBox="0 0 3050 900" clip-rule="evenodd" image-rendering="optimizeQuality"
     shape-rendering="geometricPrecision" text-rendering="geometricPrecision">
  <defs id="defs4">
    <style id="style2">
      <![CDATA[
    .fil0 {fill:#264A60;fill-rule:nonzero}
    .fil2 {fill:#B9D879;fill-rule:nonzero}
    .fil1 {fill:#B9D879;fill-rule:nonzero;fill-opacity:0.839216}
   ]]>
    </style>
  </defs>
  <g id="Camada_x0020_1" fill-rule="nonzero">
    <path id="path7" fill="#264a60" d="M230.258 792.028c27.71 1.845 54.033 2.737 79.732 3.21C80.07 674.16 43.37 484.59 104.187 327.516 2.652 502.372-27.558 776.986 230.257 792.028zm637.436-234.04c141.704-357.8-173.426-643.54-569.543-456.196 135.09-39.888 513.12 6.684 569.55 456.196z" class="fil0"/>
    <path id="path9" fill="#b9d879" fill-opacity=".839" d="M391.812 121.846c-263.364-43.92-375.095 179.27-347.09 395.446 11-91.146 69.128-186.724 138.47-253.223l9.768-9.37c68.256-65.46 135.038-108.11 198.852-132.86zM97.502 685.06c86.262 162.12 269.425 266.872 542.442 150.433-110.64 9.007-256.268-15.183-443.032-88.48-42.824-16.425-75.452-37.55-99.41-61.952z" class="fil1"/>
    <path id="path11" fill="#264a60" d="M1133.972 713.69c-29.038 0-54.504-4.61-76.397-13.827-21.894-9.218-40.33-22.124-55.31-38.717-14.98-16.593-26.157-36.297-33.532-59.113-7.375-22.815-11.062-48.05-11.062-75.705 0-27.656 4.04-53.005 12.1-76.05 8.07-23.047 19.48-42.98 34.23-59.805 14.75-16.823 32.84-29.96 54.27-39.408 21.44-9.45 45.29-14.174 71.56-14.174 16.13 0 32.27 1.39 48.4 4.15 16.14 2.77 31.58 7.15 46.33 13.14l-14.52 54.62c-9.68-4.61-20.85-8.29-33.53-11.06-12.67-2.76-26.15-4.15-40.44-4.15-35.95 0-63.49 11.29-82.62 33.88-19.13 22.59-28.69 55.54-28.69 98.87 0 19.36 2.19 37.11 6.57 53.24 4.38 16.13 11.29 29.96 20.74 41.48 9.45 11.53 21.55 20.4 36.3 26.62 14.75 6.22 32.73 9.34 53.93 9.34 17.06 0 32.5-1.61 46.32-4.84 13.83-3.22 24.66-6.68 32.5-10.37l8.99 53.93c-3.68 2.31-8.98 4.5-15.9 6.57s-14.75 3.92-23.5 5.53c-8.76 1.62-18.09 3-28 4.15-9.91 1.15-19.47 1.73-28.69 1.73zm286.92-54.618c15.21 0 28.692-.346 40.446-1.038 11.753-.69 21.547-1.958 29.383-3.802V547.07c-4.6-2.306-12.09-4.264-22.46-5.878-10.37-1.613-22.93-2.42-37.68-2.42-9.68 0-19.93.692-30.76 2.075-10.83 1.383-20.74 4.263-29.73 8.64-8.98 4.38-16.47 10.373-22.47 17.977-5.99 7.606-8.98 17.63-8.98 30.075 0 23.04 7.38 39.06 22.13 48.05 14.75 8.98 34.8 13.48 60.15 13.48zm-5.53-322.18c25.81 0 47.59 3.34 65.335 10.024 17.745 6.683 32.033 16.132 42.865 28.346 10.83 12.215 18.552 26.734 23.16 43.556 4.61 16.825 6.915 35.376 6.915 55.657v224.697c-5.53.922-13.252 2.19-23.16 3.803-9.91 1.612-21.088 3.11-33.533 4.493-12.445 1.382-25.926 2.65-40.446 3.803-14.518 1.16-28.922 1.73-43.21 1.73-20.28 0-38.95-2.07-56-6.22-17.055-4.15-31.805-10.71-44.25-19.7-12.444-8.98-22.124-20.85-29.038-35.6-6.913-14.75-10.37-32.49-10.37-53.23 0-19.82 4.033-36.87 12.1-51.16 8.065-14.29 19.012-25.81 32.84-34.57 13.827-8.75 29.96-15.21 48.395-19.36 18.437-4.14 37.795-6.22 58.076-6.22 6.46 0 13.14.35 20.05 1.04 6.92.69 13.49 1.61 19.71 2.77 6.23 1.15 11.64 2.19 16.25 3.11 4.61.92 7.84 1.61 9.68 2.08v-17.98c0-10.6-1.15-21.08-3.45-31.45-2.3-10.37-6.45-19.59-12.44-27.66-5.99-8.06-14.17-14.52-24.54-19.35-10.37-4.84-23.85-7.26-40.44-7.26-21.2 0-39.75 1.5-55.65 4.5-15.9 2.996-27.77 6.107-35.6 9.33l-7.61-53.24c8.3-3.69 22.13-7.26 41.48-10.72 19.36-3.46 40.33-5.19 62.92-5.19zm180.863 19.358c14.75-3.688 34.223-7.605 58.42-11.753 24.2-4.15 52.2-6.223 84.003-6.223 23.046 0 42.405 3.11 58.076 9.333 15.67 6.223 28.807 15.325 39.408 27.31 3.227-2.305 8.297-5.532 15.21-9.68 6.914-4.148 15.442-8.18 25.582-12.1 10.14-3.916 21.432-7.374 33.877-10.37 12.45-2.996 25.82-4.493 40.1-4.493 27.66 0 50.24 4.033 67.76 12.1 17.52 8.065 31.23 19.472 41.14 34.222s16.59 32.264 20.05 52.544c3.46 20.28 5.19 42.405 5.19 66.373v201.88h-64.29V517.34c0-21.202-1.03-39.41-3.11-54.618-2.07-15.21-5.99-27.886-11.75-38.027-5.76-10.14-13.59-17.63-23.5-22.468-9.91-4.84-22.7-7.26-38.37-7.26-21.66 0-39.52 2.88-53.58 8.642-14.06 5.76-23.62 10.94-28.69 15.55 3.69 11.98 6.45 25.12 8.3 39.41 1.85 14.29 2.77 29.26 2.77 44.94v201.88h-64.3V517.34c0-21.202-1.15-39.41-3.45-54.618-2.307-15.21-6.34-27.886-12.1-38.027-5.76-10.14-13.6-17.63-23.51-22.468-9.91-4.84-22.47-7.26-37.68-7.26-6.454 0-13.37.23-20.743.69-7.377.462-14.405 1.04-21.09 1.73-6.68.69-12.79 1.497-18.32 2.42-5.53.92-9.22 1.613-11.06 2.074V705.4h-64.3zm780.978 170.078c0-41.944-10.37-74.207-31.112-96.792-20.74-22.585-48.39-33.878-82.96-33.878-19.36 0-34.45.692-45.28 2.074-10.83 1.383-19.47 2.996-25.92 4.84v226.77c7.84 6.453 19.13 12.676 33.88 18.668 14.75 5.992 30.88 8.988 48.4 8.988 18.44 0 34.23-3.342 47.36-10.025 13.14-6.683 23.85-15.902 32.15-27.655 8.3-11.754 14.29-25.58 17.98-41.482 3.69-15.903 5.53-33.072 5.53-51.508zm67.063 0c0 27.194-3.57 52.314-10.716 75.36-7.144 23.045-17.63 42.865-31.457 59.458-13.828 16.593-30.767 29.5-50.817 38.717-20.05 9.218-42.98 13.828-68.79 13.828-20.743 0-39.063-2.76-54.966-8.29-15.9-5.53-27.77-10.83-35.605-15.9v143.8h-64.298V356.94c15.21-3.688 34.223-7.72 57.038-12.1 22.816-4.38 49.203-6.568 79.163-6.568 27.655 0 52.544 4.38 74.668 13.136 22.124 8.757 41.02 21.202 56.693 37.334 15.67 16.132 27.77 35.837 36.29 59.112 8.52 23.277 12.79 49.434 12.79 78.472zm312.918 168.696c-14.75 3.687-34.224 7.605-58.422 11.753-24.197 4.148-52.198 6.222-84.002 6.222-27.655 0-50.93-4.04-69.83-12.1-18.896-8.07-34.107-19.48-45.63-34.23-11.523-14.75-19.82-32.15-24.89-52.2-5.07-20.05-7.604-42.29-7.604-66.72V345.88h64.298v188.053c0 43.788 6.914 75.13 20.74 94.027 13.83 18.897 37.105 28.347 69.83 28.347 6.914 0 14.06-.23 21.433-.692 7.374-.46 14.288-1.037 20.74-1.73 6.453-.69 12.33-1.382 17.63-2.072 5.3-.692 9.104-1.498 11.408-2.42V345.88h64.3zm130.393-35.952c26.272 0 45.746-3.457 58.42-10.37 12.677-6.915 19.015-17.977 19.015-33.187 0-15.67-6.223-28.115-18.668-37.333-12.445-9.22-32.955-19.59-61.532-31.113-13.828-5.54-27.08-11.18-39.754-16.94-12.676-5.76-23.622-12.56-32.84-20.4-9.22-7.84-16.594-17.29-22.125-28.35-5.53-11.07-8.296-24.66-8.296-40.79 0-31.81 11.753-57.04 35.26-75.71 23.506-18.67 55.54-28 96.1-28 10.14 0 20.28.57 30.42 1.72s19.59 2.53 28.348 4.15c8.757 1.61 16.477 3.34 23.16 5.18 6.684 1.84 11.87 3.46 15.556 4.84l-11.75 55.31c-6.91-3.69-17.74-7.49-32.49-11.41-14.75-3.92-32.49-5.88-53.23-5.88-17.97 0-33.65 3.57-47.01 10.71-13.36 7.14-20.05 18.32-20.05 33.53 0 7.83 1.5 14.75 4.5 20.74 3 5.99 7.61 11.41 13.83 16.25s13.95 9.33 23.16 13.48c9.22 4.15 20.29 8.52 33.19 13.13 17.06 6.45 32.27 12.79 45.63 19.01 13.37 6.22 24.78 13.48 34.23 21.77 9.45 8.3 16.71 18.32 21.78 30.08 5.07 11.75 7.6 26.15 7.6 43.21 0 33.18-12.33 58.3-36.99 75.36-24.65 17.05-59.8 25.58-105.43 25.58-31.8 0-56.69-2.65-74.67-7.95-17.97-5.3-30.19-9.33-36.64-12.1l11.75-55.31c7.37 2.76 19.13 6.91 35.26 12.44 16.13 5.53 37.56 8.293 64.3 8.293z" class="fil0"/>
    <path id="path13" fill="#b9d879" d="M812.446 719.76c144.04 83.82 121.855-133.23 13.85-62.343l-1.528 1.004c-21.948 14.41-41.482 44.69-12.322 61.34z" class="fil2"/>
    <path id="path15" fill="#264a60" d="M765.83 389.124c4.934-6.117 9.165-8.326 12.69-6.626 3.525 1.7 6.17 4.927 7.932 9.686 1.763 4.757 2.82 9.855 3.172 15.293.353 5.438-.176 9.177-1.586 11.216-7.755 10.196-19.565 25.32-35.427 45.37-15.86 20.053-34.54 42.145-56.05 66.275-21.5 24.13-45.12 48.6-70.85 73.41-25.73 24.81-52.17 47.582-79.31 68.313-27.14 20.74-54.28 37.56-81.43 50.47-27.14 12.92-52.7 19.38-76.67 19.38-17.62 0-36.13-4.59-55.52-13.76s-37.19-20.73-53.4-34.66c-16.21-13.93-29.43-28.72-39.65-44.35-10.22-15.63-14.63-29.57-13.22-41.8 2.82-30.58 9.34-61.17 19.57-91.76 10.23-30.58 22.92-59.64 38.07-87.17 15.16-27.53 31.9-53.36 50.23-77.49 18.34-24.13 37.19-44.86 56.58-62.19s38.6-31.09 57.64-41.29c19.04-10.19 36.31-15.29 51.82-15.29 19.74 0 38.78 5.1 57.11 15.3 18.33 10.2 34.02 22.95 47.06 38.24s23.27 31.78 30.67 49.45c7.4 17.68 10.75 33.65 10.05 47.92-1.41 14.28-8.28 31.78-20.62 52.51-12.34 20.74-28.02 40.45-47.06 59.14-19.03 18.7-40.18 34.84-63.45 48.43-23.26 13.6-46.88 20.39-70.85 20.39-14.1 0-26.61-.85-37.54-2.55-10.92-1.7-20.97-4.25-30.14-7.65-7.05 18.36-12.69 35.52-16.92 51.49-4.23 15.98-6.52 29.91-6.87 41.8-.35 11.9 1.77 21.42 6.35 28.55 4.59 7.14 11.81 10.71 21.68 10.71 21.86 0 44.77-5.27 68.74-15.8 23.98-10.532 48.12-24.3 72.45-41.29 24.324-16.99 48.294-36.365 71.91-58.12 23.62-21.75 46.004-43.67 67.155-65.76 21.15-22.09 40.716-43.16 58.693-63.213 17.977-20.05 33.66-37.55 47.06-52.51zm-222.082-81.566c-7.755 0-16.742 4.418-26.965 13.254-10.223 8.836-21.15 20.732-32.784 35.686s-23.45 32.287-35.43 52c-11.99 19.71-23.62 40.103-34.9 61.174 27.49-6.117 51.64-18.012 72.44-35.686 20.8-17.672 37.36-35.855 49.7-54.547 12.33-18.7 19.39-35.35 21.15-49.97 1.76-14.62-2.65-21.92-13.22-21.92z" class="fil0"/>
  </g>
</svg>